<svg xmlns="http://www.w3.org/2000/svg" width="68" height="68" viewBox="0 0 68 68" fill="none"><g id="btn-arrow"><path d="M64.6553 34C64.6553 17.0693 50.9307 3.34473 34 3.34473C17.0693 3.34473 3.34473 17.0693 3.34473 34C3.34473 50.9307 17.0693 64.6553 34 64.6553V68C15.2223 68 0 52.7777 0 34C0 15.2223 15.2223 0 34 0C52.7777 0 68 15.2223 68 34C68 52.7777 52.7777 68 34 68V64.6553C50.9307 64.6553 64.6553 50.9307 64.6553 34Z" fill="url(#paint0_linear_13_13)"></path><path d="M26.3406 25.082C26.3406 24.2201 27.0392 23.5214 27.9012 23.5214H41.9466C42.8086 23.5214 43.5072 24.2201 43.5072 25.082V39.1275C43.5072 39.9894 42.8086 40.6881 41.9466 40.6881C41.0848 40.6879 40.386 39.9893 40.386 39.1275V28.8496L25.2143 44.0213C24.6048 44.6307 23.6168 44.6307 23.0074 44.0213C22.3979 43.4118 22.3979 42.4238 23.0074 41.8143L38.1791 26.6426H27.9012C27.0393 26.6426 26.3407 25.9438 26.3406 25.082Z" fill="#2C3E50"></path></g><defs><linearGradient id="paint0_linear_13_13" x1="0" y1="34" x2="68" y2="34" gradientUnits="userSpaceOnUse"><stop stop-color="#486582"></stop><stop offset="1" stop-color="#2C3E50"></stop></linearGradient></defs></svg>