<svg xmlns="http://www.w3.org/2000/svg" width="1409" height="716" viewBox="0 0 1409 716" fill="none"><g id="grade"><path fill-rule="evenodd" clip-rule="evenodd" d="M205 654.732V716H206V654.732H826V716H827V654.732H905V716H906V654.732H1226V716H1227V654.732H1305V716H1306V654.732H1409V653.732H1306V581.799H1409V580.799H1306V502.799H1409V501.799H1306V429.866H1409V428.866H1306V350.866H1409V349.866H1306V277.933H1409V276.933H1306V198.933H1409V197.933H1306V126H1409V125H1306V47H1409V46H1306V4.37112e-08H1305V46H1227V4.37112e-08H1226V46H906V4.37112e-08H905V46H827V4.37112e-08H826V46H206V4.37112e-08H205V46H127V4.37112e-08H126V46H0V47H126V125H0V126H126V197.933H0V198.933H126V276.933H0V277.933H126V349.866H0V350.866H126V428.866H0V429.866H126V501.799H0V502.799H126V580.799H0V581.799H126V653.732H0V654.732H126V716H127V654.732H205ZM205 126V197.933H127V126H205ZM127 198.933H205V276.933H127V198.933ZM206 198.933V276.933H826V198.933H206ZM205 349.866V277.933H127V349.866H205ZM205 350.866H127V428.866H205V350.866ZM206 428.866V350.866H826V428.866H206ZM205 429.866V501.799H127V429.866H205ZM127 502.799H205V580.799H127V502.799ZM206 502.799V580.799H826V502.799H206ZM205 653.732V581.799H127V653.732H205ZM1305 653.732V581.799H1227V653.732H1305ZM1226 653.732V581.799H906V653.732H1226ZM905 653.732V581.799H827V653.732H905ZM826 653.732V581.799H206V653.732H826ZM1305 429.866V501.799H1227V429.866H1305ZM1226 429.866V501.799H906V429.866H1226ZM1226 502.799H906V580.799H1226V502.799ZM905 429.866V501.799H827V429.866H905ZM905 502.799H827V580.799H905V502.799ZM826 429.866V501.799H206V429.866H826ZM1227 502.799V580.799H1305V502.799H1227ZM1305 349.866V277.933H1227V349.866H1305ZM1226 349.866V277.933H906V349.866H1226ZM906 350.866H1226V428.866H906V350.866ZM905 349.866V277.933H827V349.866H905ZM827 350.866H905V428.866H827V350.866ZM826 349.866V277.933H206V349.866H826ZM1227 428.866V350.866H1305V428.866H1227ZM1305 126V197.933H1227V126H1305ZM1226 126V197.933H906V126H1226ZM1226 198.933H906V276.933H1226V198.933ZM905 126V197.933H827V126H905ZM905 198.933H827V276.933H905V198.933ZM826 126V197.933H206V126H826ZM1227 198.933V276.933H1305V198.933H1227ZM206 125H826V47H206V125ZM205 47V125H127V47H205ZM827 47V125H905V47H827ZM906 47V125H1226V47H906ZM1227 47V125H1305V47H1227Z" fill="url(#paint0_radial_0_7)" fill-opacity="0.35"></path><path d="M827.324 580.534H825.676V582.182H827.324V580.534Z" fill="#E4E4E4"></path><path d="M827.324 653.44H825.676V655.088H827.324V653.44Z" fill="#E4E4E4"></path><path d="M904.696 653.44H906.344V655.088H904.696V653.44Z" fill="#E4E4E4"></path><path d="M906.344 580.534H904.696V582.182H906.344V580.534Z" fill="#E4E4E4"></path><path d="M1227.4 580.534H1225.75V582.182H1227.4V580.534Z" fill="#E4E4E4"></path><path d="M1227.4 653.44H1225.75V655.088H1227.4V653.44Z" fill="#E4E4E4"></path><path d="M1304.77 653.44H1306.42V655.088H1304.77V653.44Z" fill="#E4E4E4"></path><path d="M1306.42 580.534H1304.77V582.182H1306.42V580.534Z" fill="#E4E4E4"></path><path d="M1227.4 501.534H1225.75V503.182H1227.4V501.534Z" fill="#E4E4E4"></path><path d="M1306.42 501.534H1304.77V503.182H1306.42V501.534Z" fill="#E4E4E4"></path><path d="M827.273 501.534H825.625V503.182H827.273V501.534Z" fill="#E4E4E4"></path><path d="M906.293 501.534H904.645V503.182H906.293V501.534Z" fill="#E4E4E4"></path><path d="M827.273 428.534H825.625V430.182H827.273V428.534Z" fill="#E4E4E4"></path><path d="M906.293 428.534H904.645V430.182H906.293V428.534Z" fill="#E4E4E4"></path><path d="M827.32 349.534H825.672V351.182H827.32V349.534Z" fill="#E4E4E4"></path><path d="M906.34 349.534H904.692V351.182H906.34V349.534Z" fill="#E4E4E4"></path><path d="M827.32 276.627H825.672V278.275H827.32V276.627Z" fill="#E4E4E4"></path><path d="M906.34 276.627H904.692V278.275H906.34V276.627Z" fill="#E4E4E4"></path><path d="M827.32 197.62H825.672V199.268H827.32V197.62Z" fill="#E4E4E4"></path><path d="M906.34 197.62H904.692V199.268H906.34V197.62Z" fill="#E4E4E4"></path><path d="M827.32 124.682H825.672V126.33H827.32V124.682Z" fill="#E4E4E4"></path><path d="M906.34 124.682H904.692V126.33H906.34V124.682Z" fill="#E4E4E4"></path><path d="M827.32 45.6821H825.672V47.3301H827.32V45.6821Z" fill="#E4E4E4"></path><path d="M906.34 45.6821H904.692V47.3301H906.34V45.6821Z" fill="#E4E4E4"></path><path d="M127.335 45.6821H125.688V47.3301H127.335V45.6821Z" fill="#E4E4E4"></path><path d="M206.355 45.6821H204.707V47.3301H206.355V45.6821Z" fill="#E4E4E4"></path><path d="M127.335 124.682H125.688V126.33H127.335V124.682Z" fill="#E4E4E4"></path><path d="M206.355 124.682H204.707V126.33H206.355V124.682Z" fill="#E4E4E4"></path><path d="M127.335 197.682H125.688V199.33H127.335V197.682Z" fill="#E4E4E4"></path><path d="M206.355 197.682H204.707V199.33H206.355V197.682Z" fill="#E4E4E4"></path><path d="M127.335 276.682H125.688V278.33H127.335V276.682Z" fill="#E4E4E4"></path><path d="M206.355 276.682H204.707V278.33H206.355V276.682Z" fill="#E4E4E4"></path><path d="M206.355 349.557H204.707V351.205H206.355V349.557Z" fill="#E4E4E4"></path><path d="M206.355 428.651H204.707V430.299H206.355V428.651Z" fill="#E4E4E4"></path><path d="M206.355 501.651H204.707V503.299H206.355V501.651Z" fill="#E4E4E4"></path><path d="M127.398 349.557H125.75V351.205H127.398V349.557Z" fill="#E4E4E4"></path><path d="M1227.4 428.659H1225.75V430.307H1227.4V428.659Z" fill="#E4E4E4"></path><path d="M1306.42 428.659H1304.77V430.307H1306.42V428.659Z" fill="#E4E4E4"></path><path d="M1227.4 349.596H1225.75V351.244H1227.4V349.596Z" fill="#E4E4E4"></path><path d="M1227.4 276.784H1225.75V278.432H1227.4V276.784Z" fill="#E4E4E4"></path><path fill-rule="evenodd" clip-rule="evenodd" d="M626 716L626 0L627 4.37112e-08L627 716H626Z" fill="url(#paint1_linear_0_7)"></path><path d="M627.335 45.6509H625.688V47.2988H627.335V45.6509Z" fill="#E4E4E4"></path><path d="M627.335 124.745H625.688V126.393H627.335V124.745Z" fill="#E4E4E4"></path><path d="M627.335 197.682H625.688V199.33H627.335V197.682Z" fill="#E4E4E4"></path><path d="M627.335 276.682H625.688V278.33H627.335V276.682Z" fill="#E4E4E4"></path><path d="M627.335 349.588H625.688V351.236H627.335V349.588Z" fill="#E4E4E4"></path><path d="M627.335 428.651H625.688V430.299H627.335V428.651Z" fill="#E4E4E4"></path><path d="M627.335 501.651H625.688V503.299H627.335V501.651Z" fill="#E4E4E4"></path><path d="M627.335 580.401H625.688V582.049H627.335V580.401Z" fill="#E4E4E4"></path></g><defs><radialGradient id="paint0_radial_0_7" cx="0" cy="0" r="1" gradientUnits="userSpaceOnUse" gradientTransform="translate(704.5 358) rotate(120.475) scale(452.515 890.495)"><stop stop-color="#45495B" stop-opacity="0.59"></stop><stop offset="1" stop-color="#919BC1" stop-opacity="0"></stop></radialGradient><linearGradient id="paint1_linear_0_7" x1="0" y1="358" x2="1409" y2="358" gradientUnits="userSpaceOnUse"><stop stop-color="#454A5E" stop-opacity="0.18"></stop><stop offset="0.22" stop-color="#454A5E" stop-opacity="0.6"></stop><stop offset="1" stop-color="#909AC4" stop-opacity="0.12"></stop></linearGradient></defs></svg>