<svg xmlns="http://www.w3.org/2000/svg" width="900" height="96" viewBox="0 0 900 96" fill="none"><g id="modo-criador-text"><path d="M828.545 94V2.40332H865.107C884.658 2.40332 896.592 13.2578 896.592 30.9678V31.0947C896.592 43.4092 889.99 53.375 879.326 57.2471L899.321 94H880.659L862.632 59.7227H844.922V94H828.545ZM844.922 46.7734H863.394C873.74 46.7734 879.834 41.0605 879.834 31.2217V31.0947C879.834 21.5098 873.359 15.6699 863.076 15.6699H844.922V46.7734Z" fill="url(#paint0_linear_51_360)"></path><path d="M778.551 95.5869C751.764 95.5869 735.069 77.3691 735.069 48.2334V48.1064C735.069 19.0342 751.891 0.816406 778.551 0.816406C805.274 0.816406 821.969 19.0342 821.969 48.1064V48.2334C821.969 77.3691 805.338 95.5869 778.551 95.5869ZM778.551 81.3682C795.118 81.3682 805.338 68.4189 805.338 48.2334V48.1064C805.338 27.7939 794.928 15.0352 778.551 15.0352C762.237 15.0352 751.764 27.7305 751.764 48.1064V48.2334C751.764 68.6094 762.174 81.3682 778.551 81.3682Z" fill="url(#paint1_linear_51_360)"></path><path d="M654.67 94V2.40332H688.122C715.417 2.40332 731.667 18.9072 731.667 47.8525V47.9795C731.667 76.9883 715.544 94 688.122 94H654.67ZM671.047 80.1621H686.408C704.816 80.1621 714.973 68.9268 714.973 48.043V47.916C714.973 27.4766 704.626 16.2412 686.408 16.2412H671.047V80.1621Z" fill="url(#paint2_linear_51_360)"></path><path d="M567.479 94L600.232 2.40332H618.641L651.395 94H634.192L626.448 70.3232H592.361L584.617 94H567.479ZM609.246 18.7168L596.487 57.6914H622.322L609.627 18.7168H609.246Z" fill="url(#paint3_linear_51_360)"></path><path d="M547.826 94V2.40332H564.203V94H547.826Z" fill="url(#paint4_linear_51_360)"></path><path d="M473.076 94V2.40332H509.639C529.189 2.40332 541.123 13.2578 541.123 30.9678V31.0947C541.123 43.4092 534.521 53.375 523.857 57.2471L543.853 94H525.19L507.163 59.7227H489.453V94H473.076ZM489.453 46.7734H507.925C518.271 46.7734 524.365 41.0605 524.365 31.2217V31.0947C524.365 21.5098 517.891 15.6699 507.607 15.6699H489.453V46.7734Z" fill="url(#paint5_linear_51_360)"></path><path d="M428.033 95.5869C401.69 95.5869 385.06 77.4326 385.06 48.1699V48.1064C385.06 18.8438 401.754 0.816406 428.033 0.816406C449.107 0.816406 464.596 13.9561 467.008 32.6182L467.071 33.2529H451.012L450.694 32.0469C448.028 21.5732 439.967 15.0352 428.033 15.0352C412.037 15.0352 401.817 27.7939 401.817 48.1064V48.1699C401.817 68.5459 412.101 81.3682 428.033 81.3682C439.713 81.3682 447.901 75.084 450.885 63.7852L451.075 63.1504H467.135L467.008 63.7852C464.659 82.5742 449.107 95.5869 428.033 95.5869Z" fill="url(#paint6_linear_51_360)"></path><path d="M318.65 95.5869C291.863 95.5869 275.169 77.3691 275.169 48.2334V48.1064C275.169 19.0342 291.99 0.816406 318.65 0.816406C345.374 0.816406 362.068 19.0342 362.068 48.1064V48.2334C362.068 77.3691 345.438 95.5869 318.65 95.5869ZM318.65 81.3682C335.218 81.3682 345.438 68.4189 345.438 48.2334V48.1064C345.438 27.7939 335.027 15.0352 318.65 15.0352C302.337 15.0352 291.863 27.7305 291.863 48.1064V48.2334C291.863 68.6094 302.273 81.3682 318.65 81.3682Z" fill="url(#paint7_linear_51_360)"></path><path d="M194.77 94V2.40332H228.222C255.517 2.40332 271.767 18.9072 271.767 47.8525V47.9795C271.767 76.9883 255.644 94 228.222 94H194.77ZM211.146 80.1621H226.508C244.916 80.1621 255.072 68.9268 255.072 48.043V47.916C255.072 27.4766 244.726 16.2412 226.508 16.2412H211.146V80.1621Z" fill="url(#paint8_linear_51_360)"></path><path d="M144.775 95.5869C117.988 95.5869 101.294 77.3691 101.294 48.2334V48.1064C101.294 19.0342 118.115 0.816406 144.775 0.816406C171.499 0.816406 188.193 19.0342 188.193 48.1064V48.2334C188.193 77.3691 171.562 95.5869 144.775 95.5869ZM144.775 81.3682C161.343 81.3682 171.562 68.4189 171.562 48.2334V48.1064C171.562 27.7939 161.152 15.0352 144.775 15.0352C128.462 15.0352 117.988 27.7305 117.988 48.1064V48.2334C117.988 68.6094 128.398 81.3682 144.775 81.3682Z" fill="url(#paint9_linear_51_360)"></path><path d="M0.328125 94V2.40332H19.2441L47.3008 72.3545H47.7451L75.8018 2.40332H94.7178V94H79.9912V28.873H79.4834L53.0771 94H41.9688L15.5625 28.873H15.1182V94H0.328125Z" fill="url(#paint10_linear_51_360)"></path></g><defs><linearGradient id="paint0_linear_51_360" x1="-4846.01" y1="-4.25681" x2="-4846.01" y2="134.904" gradientUnits="userSpaceOnUse"><stop stop-color="#5A6F85"></stop><stop offset="1" stop-color="#D1D8DE"></stop></linearGradient><linearGradient id="paint1_linear_51_360" x1="-2979.81" y1="-2.5" x2="-2979.81" y2="132" gradientUnits="userSpaceOnUse"><stop stop-color="#5A6F85"></stop><stop offset="1" stop-color="#D1D8DE"></stop></linearGradient><linearGradient id="paint2_linear_51_360" x1="-2424.36" y1="-4.25681" x2="-2424.36" y2="134.904" gradientUnits="userSpaceOnUse"><stop stop-color="#5A6F85"></stop><stop offset="1" stop-color="#D1D8DE"></stop></linearGradient><linearGradient id="paint3_linear_51_360" x1="-1290.36" y1="-4.25681" x2="-1290.36" y2="134.904" gradientUnits="userSpaceOnUse"><stop stop-color="#5A6F85"></stop><stop offset="1" stop-color="#D1D8DE"></stop></linearGradient><linearGradient id="paint4_linear_51_360" x1="-5534.41" y1="-4.25681" x2="-5534.41" y2="134.904" gradientUnits="userSpaceOnUse"><stop stop-color="#5A6F85"></stop><stop offset="1" stop-color="#D1D8DE"></stop></linearGradient><linearGradient id="paint5_linear_51_360" x1="-330.889" y1="-4.25681" x2="-330.889" y2="134.904" gradientUnits="userSpaceOnUse"><stop stop-color="#5A6F85"></stop><stop offset="1" stop-color="#D1D8DE"></stop></linearGradient><linearGradient id="paint6_linear_51_360" x1="678.779" y1="-2.5" x2="678.779" y2="132" gradientUnits="userSpaceOnUse"><stop stop-color="#5A6F85"></stop><stop offset="1" stop-color="#D1D8DE"></stop></linearGradient><linearGradient id="paint7_linear_51_360" x1="1777.96" y1="-2.5" x2="1777.96" y2="132" gradientUnits="userSpaceOnUse"><stop stop-color="#5A6F85"></stop><stop offset="1" stop-color="#D1D8DE"></stop></linearGradient><linearGradient id="paint8_linear_51_360" x1="2945.29" y1="-4.25681" x2="2945.29" y2="134.904" gradientUnits="userSpaceOnUse"><stop stop-color="#5A6F85"></stop><stop offset="1" stop-color="#D1D8DE"></stop></linearGradient><linearGradient id="paint9_linear_51_360" x1="3576.73" y1="-2.5" x2="3576.73" y2="132" gradientUnits="userSpaceOnUse"><stop stop-color="#5A6F85"></stop><stop offset="1" stop-color="#D1D8DE"></stop></linearGradient><linearGradient id="paint10_linear_51_360" x1="447" y1="-2.5" x2="447" y2="132" gradientUnits="userSpaceOnUse"><stop stop-color="#5A6F85"></stop><stop offset="1" stop-color="#D1D8DE"></stop></linearGradient></defs></svg>