<svg xmlns="http://www.w3.org/2000/svg" width="64" height="39" viewBox="0 0 64 39" fill="none"><g id="on-icon"><path id="background" d="M0 19.2903C0 8.63657 8.63657 0 19.2903 0H44.5161C55.1699 0 63.8065 8.63657 63.8065 19.2903C63.8065 29.9441 55.1699 38.5806 44.5161 38.5806H19.2903C8.63657 38.5806 0 29.9441 0 19.2903Z" fill="#34C759"></path><g id="check"><path d="M27.2781 22.5993L27.2773 22.6L23.2012 18.5265L21.1689 20.5631L27.2778 26.672L29.3144 24.6356L29.3603 24.5924L27.3239 22.556L27.2781 22.5993ZM40.003 13.9471L37.9717 11.9082L30.7985 19.0814L32.8349 21.1152L40.003 13.9471Z" fill="white"></path><path d="M43.5769 11.9082L32.8808 22.5993L32.1146 21.8356L28.8055 18.5265L26.7716 20.5629L32.8808 26.672L45.6057 13.9471L43.5769 11.9082Z" fill="white"></path></g></g></svg>